<svg width="129" height="129" viewBox="0 0 129 129" fill="none" xmlns="http://www.w3.org/2000/svg">
<path d="M128.612 64.847C128.612 74.9776 126.205 84.9631 121.59 93.9814C116.975 103 110.284 110.792 102.067 116.718C93.8502 122.644 84.3434 126.533 74.3294 128.065C64.3153 129.596 54.0807 128.727 44.4683 125.529L64.6588 64.847H128.612Z" fill="#6B0000"/>
<path d="M128.612 64.847C128.612 56.4486 126.958 48.1324 123.744 40.3733C120.53 32.6142 115.819 25.5641 109.88 19.6255L64.6588 64.847H128.612Z" fill="#E4D1D1"/>
<path d="M45.348 125.815C33.2897 121.996 22.6348 114.686 14.7305 104.811C6.82633 94.9366 2.02786 82.9396 0.941936 70.3376C-0.143992 57.7356 2.53139 45.0946 8.62977 34.0131C14.7282 22.9316 23.9756 13.9074 35.2028 8.08152L64.6588 64.847L45.348 125.815Z" fill="#6B0000" fill-opacity="0.7"/>
<path d="M109.88 19.6255C100.21 9.95503 87.694 3.63929 74.17 1.60533C60.646 -0.428619 46.8262 1.92635 34.7391 8.32456L64.6588 64.847L109.88 19.6255Z" fill="#6B0000" fill-opacity="0.3"/>
<path d="M12.8358 67.8728C12.8358 67.1577 12.9955 66.519 13.3149 65.9567C13.6412 65.3874 14.082 64.9465 14.6374 64.6341C15.1998 64.3148 15.8281 64.1551 16.5223 64.1551C17.3346 64.1551 18.0462 64.3634 18.6571 64.7799C19.2681 65.1965 19.695 65.7727 19.938 66.5086H18.2614C18.0948 66.1615 17.8587 65.9011 17.5533 65.7276C17.2547 65.554 16.9076 65.4672 16.5119 65.4672C16.0884 65.4672 15.71 65.5679 15.3768 65.7692C15.0505 65.9636 14.7936 66.2413 14.6062 66.6023C14.4257 66.9633 14.3354 67.3868 14.3354 67.8728C14.3354 68.3518 14.4257 68.7753 14.6062 69.1433C14.7936 69.5043 15.0505 69.7855 15.3768 69.9868C15.71 70.1812 16.0884 70.2784 16.5119 70.2784C16.9076 70.2784 17.2547 70.1916 17.5533 70.0181C17.8587 69.8375 18.0948 69.5737 18.2614 69.2266H19.938C19.695 69.9695 19.2681 70.5492 18.6571 70.9657C18.0531 71.3753 17.3415 71.5801 16.5223 71.5801C15.8281 71.5801 15.1998 71.4239 14.6374 71.1115C14.082 70.7921 13.6412 70.3513 13.3149 69.7889C12.9955 69.2266 12.8358 68.5879 12.8358 67.8728ZM23.7451 71.6114C23.1897 71.6114 22.6898 71.4899 22.2455 71.2469C21.8012 70.9969 21.4506 70.6464 21.1937 70.1951C20.9438 69.7438 20.8188 69.2231 20.8188 68.633C20.8188 68.0429 20.9473 67.5222 21.2041 67.0709C21.4679 66.6197 21.8255 66.2726 22.2767 66.0296C22.728 65.7796 23.2313 65.6547 23.7867 65.6547C24.3421 65.6547 24.8455 65.7796 25.2967 66.0296C25.748 66.2726 26.1021 66.6197 26.359 67.0709C26.6228 67.5222 26.7547 68.0429 26.7547 68.633C26.7547 69.2231 26.6193 69.7438 26.3485 70.1951C26.0847 70.6464 25.7237 70.9969 25.2655 71.2469C24.8142 71.4899 24.3074 71.6114 23.7451 71.6114ZM23.7451 70.3409C24.0089 70.3409 24.2554 70.2784 24.4845 70.1534C24.7205 70.0215 24.908 69.8271 25.0468 69.5703C25.1857 69.3134 25.2551 69.001 25.2551 68.633C25.2551 68.0846 25.1093 67.6645 24.8177 67.3729C24.5331 67.0744 24.1825 66.9252 23.7659 66.9252C23.3494 66.9252 22.9988 67.0744 22.7141 67.3729C22.4364 67.6645 22.2976 68.0846 22.2976 68.633C22.2976 69.1815 22.433 69.605 22.7037 69.9035C22.9814 70.1951 23.3285 70.3409 23.7451 70.3409ZM31.0212 65.6651C31.7085 65.6651 32.2639 65.8838 32.6874 66.3212C33.1109 66.7516 33.3226 67.3556 33.3226 68.1332V71.5176H31.8647V68.331C31.8647 67.8728 31.7501 67.5222 31.521 67.2792C31.2919 67.0293 30.9795 66.9043 30.5838 66.9043C30.1811 66.9043 29.8618 67.0293 29.6257 67.2792C29.3966 67.5222 29.2821 67.8728 29.2821 68.331V71.5176H27.8241V65.7484H29.2821V66.4669C29.4764 66.217 29.7229 66.0226 30.0214 65.8838C30.3269 65.738 30.6601 65.6651 31.0212 65.6651ZM36.4065 66.946V69.7369C36.4065 69.9313 36.4516 70.0736 36.5419 70.1638C36.639 70.2472 36.7987 70.2888 37.0209 70.2888H37.6978V71.5176H36.7814C35.5525 71.5176 34.9381 70.9206 34.9381 69.7265V66.946H34.2508V65.7484H34.9381V64.3217H36.4065V65.7484H37.6978V66.946H36.4065ZM38.3715 68.6122C38.3715 68.029 38.4861 67.5118 38.7152 67.0605C38.9512 66.6093 39.2671 66.2621 39.6628 66.0192C40.0655 65.7762 40.5133 65.6547 41.0062 65.6547C41.4366 65.6547 41.8115 65.7415 42.1309 65.915C42.4572 66.0886 42.7175 66.3073 42.9119 66.5711V65.7484H44.3803V71.5176H42.9119V70.6741C42.7245 70.9449 42.4641 71.1705 42.1309 71.351C41.8046 71.5246 41.4262 71.6114 40.9958 71.6114C40.5098 71.6114 40.0655 71.4864 39.6628 71.2365C39.2671 70.9865 38.9512 70.6359 38.7152 70.1847C38.4861 69.7265 38.3715 69.2023 38.3715 68.6122ZM42.9119 68.633C42.9119 68.2789 42.8425 67.9769 42.7036 67.727C42.5648 67.4701 42.3773 67.2758 42.1413 67.1438C41.9053 67.005 41.6519 66.9356 41.3811 66.9356C41.1103 66.9356 40.8604 67.0015 40.6313 67.1334C40.4022 67.2653 40.2147 67.4597 40.069 67.7166C39.9301 67.9665 39.8607 68.2651 39.8607 68.6122C39.8607 68.9593 39.9301 69.2648 40.069 69.5286C40.2147 69.7855 40.4022 69.9833 40.6313 70.1222C40.8673 70.261 41.1173 70.3305 41.3811 70.3305C41.6519 70.3305 41.9053 70.2645 42.1413 70.1326C42.3773 69.9938 42.5648 69.7994 42.7036 69.5494C42.8425 69.2926 42.9119 68.9871 42.9119 68.633ZM48.0119 71.6114C47.5398 71.6114 47.1163 71.5281 46.7414 71.3614C46.3665 71.1879 46.068 70.9553 45.8458 70.6637C45.6306 70.3721 45.5126 70.0493 45.4918 69.6952H46.9601C46.9879 69.9174 47.0955 70.1014 47.283 70.2472C47.4773 70.3929 47.7169 70.4658 48.0015 70.4658C48.2792 70.4658 48.4944 70.4103 48.6472 70.2992C48.8068 70.1881 48.8867 70.0458 48.8867 69.8723C48.8867 69.6848 48.7895 69.546 48.5951 69.4557C48.4076 69.3585 48.1056 69.2544 47.6891 69.1433C47.2587 69.0392 46.9046 68.9315 46.6269 68.8205C46.3561 68.7094 46.1201 68.5393 45.9187 68.3102C45.7244 68.0811 45.6272 67.7721 45.6272 67.3834C45.6272 67.064 45.7174 66.7724 45.8979 66.5086C46.0854 66.2448 46.3492 66.0365 46.6894 65.8838C47.0365 65.731 47.4426 65.6547 47.9078 65.6547C48.5951 65.6547 49.1435 65.8282 49.5532 66.1754C49.9628 66.5155 50.1884 66.9772 50.2301 67.5604H48.8346C48.8138 67.3313 48.7166 67.1508 48.543 67.0189C48.3764 66.88 48.1508 66.8106 47.8661 66.8106C47.6023 66.8106 47.3975 66.8592 47.2517 66.9564C47.1129 67.0536 47.0434 67.189 47.0434 67.3625C47.0434 67.5569 47.1406 67.7062 47.335 67.8103C47.5294 67.9075 47.8314 68.0082 48.241 68.1123C48.6576 68.2165 49.0012 68.3241 49.272 68.4352C49.5427 68.5462 49.7753 68.7198 49.9697 68.9558C50.171 69.1849 50.2752 69.4904 50.2821 69.8723C50.2821 70.2055 50.1884 70.504 50.001 70.7678C49.8204 71.0317 49.5566 71.2399 49.2095 71.3927C48.8693 71.5385 48.4701 71.6114 48.0119 71.6114Z" fill="white"/>
<path d="M85.0907 53.649L86.6283 60.7533L85.2033 61.0617L84.2032 56.4408L83.3 61.4736L82.2211 61.7071L79.3075 57.5004L80.3076 62.1213L78.8827 62.4297L77.3451 55.3253L78.9634 54.9751L82.3663 59.7685L83.4825 53.997L85.0907 53.649ZM92.6422 56.3725C92.6862 56.576 92.7123 56.7622 92.7204 56.9309L88.5983 57.823C88.7203 58.2228 88.9318 58.5109 89.2328 58.6873C89.5338 58.8636 89.8675 58.9122 90.2339 58.8329C90.7632 58.7183 91.0906 58.4095 91.2161 57.9064L92.753 57.5738C92.7077 58.1519 92.4924 58.6673 92.1074 59.12C91.7209 59.5659 91.1918 59.8615 90.52 60.0069C89.9772 60.1244 89.4629 60.1114 88.9772 59.9679C88.4969 59.8161 88.0869 59.5462 87.7471 59.158C87.4142 58.7683 87.1853 58.2851 87.0605 57.7084C86.9342 57.1248 86.942 56.5868 87.0841 56.0944C87.2261 55.6019 87.4852 55.1907 87.8612 54.8607C88.2373 54.5307 88.7036 54.3054 89.26 54.185C89.796 54.069 90.2994 54.0808 90.77 54.2205C91.2474 54.3587 91.6477 54.6165 91.9709 54.9941C92.2995 55.3634 92.5232 55.8228 92.6422 56.3725ZM91.0782 56.2847C90.9922 55.9198 90.7967 55.6567 90.4918 55.4953C90.1855 55.3272 89.8458 55.2835 89.4726 55.3643C89.1197 55.4407 88.8447 55.6139 88.6474 55.8839C88.4554 56.1456 88.3734 56.4724 88.4014 56.8641L91.0782 56.2847ZM96.4965 58.7134C96.0351 58.8133 95.6035 58.8215 95.2019 58.7379C94.7987 58.6476 94.4578 58.4834 94.179 58.2454C93.9069 58.006 93.7233 57.7154 93.628 57.3737L95.0632 57.0631C95.1373 57.2744 95.2814 57.4315 95.4954 57.5343C95.7163 57.6357 95.9658 57.6562 96.244 57.596C96.5154 57.5373 96.714 57.4375 96.8398 57.2966C96.9724 57.1543 97.0203 56.9983 96.9836 56.8286C96.9439 56.6454 96.8195 56.5303 96.6105 56.4832C96.4067 56.4279 96.0895 56.39 95.6589 56.3695C95.2162 56.3588 94.8473 56.3285 94.5524 56.2787C94.2643 56.2274 93.9976 56.1111 93.7524 55.9297C93.5139 55.7469 93.3536 55.4655 93.2713 55.0856C93.2038 54.7734 93.2303 54.4693 93.3509 54.1733C93.4783 53.8758 93.6921 53.6165 93.9923 53.3952C94.2992 53.1725 94.68 53.012 95.1347 52.9136C95.8064 52.7682 96.3792 52.8218 96.853 53.0744C97.3253 53.3203 97.6434 53.7238 97.8075 54.2849L96.4436 54.5801C96.3748 54.3606 96.2416 54.2047 96.0441 54.1125C95.8519 54.0121 95.6167 53.9919 95.3385 54.0521C95.0806 54.108 94.8907 54.1988 94.7688 54.3246C94.6536 54.449 94.6144 54.596 94.6511 54.7656C94.6923 54.9556 94.8188 55.0809 95.0309 55.1416C95.2414 55.1955 95.5579 55.23 95.9802 55.2451C96.4094 55.2588 96.768 55.2913 97.0562 55.3426C97.3443 55.3938 97.6083 55.5143 97.8482 55.7039C98.0935 55.8852 98.2599 56.1617 98.3474 56.5335C98.4179 56.8592 98.3895 57.1708 98.2621 57.4683C98.1415 57.7643 97.9277 58.0237 97.6207 58.2464C97.3191 58.4608 96.9443 58.6165 96.4965 58.7134ZM98.8842 55.1281C98.7608 54.5581 98.7634 54.0283 98.8918 53.5388C99.0271 53.0478 99.2624 52.6417 99.5977 52.3205C99.9399 51.9979 100.352 51.7844 100.834 51.6801C101.254 51.5891 101.639 51.5946 101.988 51.6967C102.344 51.7973 102.644 51.956 102.89 52.1727L102.716 51.3686L104.151 51.058L105.372 56.6967L103.936 57.0073L103.758 56.1829C103.632 56.4872 103.425 56.7628 103.138 57.0097C102.856 57.2483 102.504 57.4132 102.083 57.5042C101.609 57.607 101.148 57.5789 100.701 57.4198C100.262 57.2592 99.8788 56.9834 99.5527 56.5923C99.2318 56.1929 99.009 55.7048 98.8842 55.1281ZM103.326 54.188C103.251 53.8419 103.12 53.5614 102.931 53.3465C102.741 53.1248 102.517 52.9745 102.258 52.8955C101.998 52.8097 101.736 52.7955 101.471 52.8527C101.206 52.91 100.976 53.0274 100.78 53.2047C100.584 53.3821 100.442 53.6118 100.354 53.8937C100.271 54.1673 100.266 54.4738 100.34 54.813C100.413 55.1523 100.546 55.4362 100.737 55.6647C100.934 55.8849 101.159 56.0386 101.412 56.1259C101.672 56.2116 101.931 56.2266 102.189 56.1708C102.454 56.1135 102.687 55.9955 102.89 55.8166C103.092 55.631 103.234 55.4013 103.317 55.1277C103.398 54.8473 103.401 54.534 103.326 54.188ZM105.782 53.6351C105.659 53.0651 105.661 52.5354 105.79 52.0459C105.925 51.5549 106.164 51.1481 106.506 50.8254C106.848 50.5027 107.26 50.2893 107.742 50.185C108.108 50.1057 108.475 50.1115 108.843 50.2024C109.209 50.2865 109.52 50.4395 109.774 50.6616L109.194 47.9847L110.64 47.6719L112.27 55.2038L110.824 55.5166L110.644 54.682C110.527 54.9983 110.328 55.2759 110.046 55.5145C109.764 55.7532 109.412 55.918 108.992 56.0091C108.517 56.1119 108.056 56.0837 107.61 55.9246C107.163 55.7655 106.777 55.4904 106.451 55.0993C106.13 54.6999 105.907 54.2119 105.782 53.6351ZM110.224 52.695C110.149 52.349 110.018 52.0685 109.829 51.8536C109.639 51.6319 109.415 51.4815 109.156 51.4026C108.896 51.3168 108.634 51.3025 108.369 51.3598C108.104 51.4171 107.874 51.5344 107.678 51.7118C107.482 51.8892 107.34 52.1188 107.252 52.4007C107.169 52.6744 107.164 52.9808 107.238 53.3201C107.311 53.6594 107.444 53.9432 107.635 54.1717C107.832 54.3919 108.057 54.5457 108.31 54.6329C108.57 54.7187 108.829 54.7337 109.087 54.6779C109.352 54.6206 109.586 54.5025 109.788 54.3237C109.99 54.138 110.132 53.9084 110.215 53.6347C110.296 53.3543 110.299 53.0411 110.224 52.695ZM112.68 52.1422C112.557 51.5722 112.56 51.0424 112.688 50.5529C112.823 50.0619 113.059 49.6558 113.394 49.3346C113.736 49.012 114.148 48.7985 114.63 48.6942C115.05 48.6032 115.435 48.6087 115.784 48.7108C116.14 48.8114 116.44 48.9701 116.686 49.1868L116.512 48.3827L117.947 48.0721L119.168 53.7108L117.733 54.0214L117.554 53.197C117.428 53.5013 117.221 53.7769 116.934 54.0238C116.652 54.2624 116.3 54.4273 115.88 54.5183C115.405 54.6211 114.944 54.593 114.498 54.4339C114.058 54.2733 113.675 53.9975 113.349 53.6064C113.028 53.207 112.805 52.7189 112.68 52.1422ZM117.122 51.2021C117.047 50.856 116.916 50.5755 116.727 50.3606C116.537 50.1389 116.313 49.9886 116.054 49.9096C115.794 49.8238 115.532 49.8096 115.267 49.8668C115.003 49.9241 114.772 50.0415 114.576 50.2188C114.38 50.3962 114.238 50.6259 114.15 50.9078C114.067 51.1814 114.062 51.4879 114.136 51.8271C114.209 52.1664 114.342 52.4503 114.533 52.6788C114.73 52.899 114.955 53.0527 115.208 53.14C115.468 53.2257 115.727 53.2407 115.985 53.1849C116.25 53.1276 116.484 53.0096 116.686 52.8307C116.888 52.6451 117.03 52.4154 117.113 52.1418C117.194 51.8614 117.197 51.5481 117.122 51.2021ZM122.737 53.0342C122.276 53.1341 121.844 53.1422 121.442 53.0587C121.039 52.9683 120.698 52.8042 120.419 52.5662C120.147 52.3267 119.964 52.0362 119.869 51.6945L121.304 51.3839C121.378 51.5952 121.522 51.7522 121.736 51.8551C121.957 51.9564 122.206 51.977 122.485 51.9168C122.756 51.8581 122.955 51.7583 123.08 51.6174C123.213 51.475 123.261 51.319 123.224 51.1494C123.184 50.9662 123.06 50.8511 122.851 50.804C122.647 50.7486 122.33 50.7107 121.899 50.6903C121.457 50.6795 121.088 50.6493 120.793 50.5994C120.505 50.5481 120.238 50.4318 119.993 50.2505C119.754 50.0677 119.594 49.7863 119.512 49.4063C119.444 49.0942 119.471 48.7901 119.591 48.4941C119.719 48.1966 119.933 47.9372 120.233 47.716C120.54 47.4933 120.921 47.3327 121.375 47.2343C122.047 47.0889 122.62 47.1426 123.093 47.3952C123.566 47.641 123.884 48.0445 124.048 48.6057L122.684 48.9009C122.615 48.6814 122.482 48.5255 122.285 48.4333C122.092 48.3328 121.857 48.3127 121.579 48.3729C121.321 48.4287 121.131 48.5195 121.009 48.6454C120.894 48.7697 120.855 48.9168 120.892 49.0864C120.933 49.2764 121.059 49.4017 121.271 49.4624C121.482 49.5162 121.798 49.5507 122.221 49.5659C122.65 49.5796 123.009 49.612 123.297 49.6633C123.585 49.7146 123.849 49.8351 124.089 50.0246C124.334 50.206 124.5 50.4825 124.588 50.8542C124.658 51.1799 124.63 51.4915 124.503 51.789C124.382 52.0851 124.168 52.3444 123.861 52.5671C123.56 52.7816 123.185 52.9373 122.737 53.0342Z" fill="white"/>
<path d="M70.1086 95.7137H67.2135L66.7345 97.0988H65.2037L67.8175 89.8195H69.515L72.1288 97.0988H70.5876L70.1086 95.7137ZM69.7128 94.5474L68.661 91.5065L67.6092 94.5474H69.7128ZM74.5638 89.3925V97.0988H73.1059V89.3925H74.5638ZM76.7436 90.6422C76.4867 90.6422 76.2715 90.5624 76.0979 90.4027C75.9313 90.2361 75.848 90.0313 75.848 89.7883C75.848 89.5453 75.9313 89.3439 76.0979 89.1843C76.2715 89.0177 76.4867 88.9343 76.7436 88.9343C77.0005 88.9343 77.2122 89.0177 77.3788 89.1843C77.5524 89.3439 77.6392 89.5453 77.6392 89.7883C77.6392 90.0313 77.5524 90.2361 77.3788 90.4027C77.2122 90.5624 77.0005 90.6422 76.7436 90.6422ZM77.4622 91.3295V97.0988H76.0042V91.3295H77.4622ZM86.0673 91.2462C86.7754 91.2462 87.3447 91.4649 87.7751 91.9023C88.2125 92.3327 88.4312 92.9367 88.4312 93.7143V97.0988H86.9733V93.9121C86.9733 93.4609 86.8587 93.1172 86.6296 92.8812C86.4005 92.6382 86.0881 92.5167 85.6924 92.5167C85.2967 92.5167 84.9808 92.6382 84.7447 92.8812C84.5156 93.1172 84.4011 93.4609 84.4011 93.9121V97.0988H82.9431V93.9121C82.9431 93.4609 82.8286 93.1172 82.5995 92.8812C82.3704 92.6382 82.058 92.5167 81.6623 92.5167C81.2596 92.5167 80.9402 92.6382 80.7042 92.8812C80.4751 93.1172 80.3605 93.4609 80.3605 93.9121V97.0988H78.9026V91.3295H80.3605V92.0272C80.548 91.7842 80.7875 91.5933 81.0791 91.4545C81.3776 91.3156 81.7039 91.2462 82.058 91.2462C82.5092 91.2462 82.9119 91.3434 83.266 91.5378C83.62 91.7252 83.8943 91.996 84.0887 92.3501C84.2761 92.0168 84.5469 91.7495 84.9009 91.5482C85.262 91.3469 85.6507 91.2462 86.0673 91.2462ZM95.1778 94.0892C95.1778 94.2974 95.1639 94.4849 95.1362 94.6515H90.9186C90.9533 95.0681 91.0991 95.3944 91.3559 95.6304C91.6128 95.8665 91.9287 95.9845 92.3036 95.9845C92.8451 95.9845 93.2304 95.7519 93.4595 95.2868H95.032C94.8654 95.8422 94.546 96.3004 94.0739 96.6614C93.6019 97.0154 93.0222 97.1925 92.3348 97.1925C91.7794 97.1925 91.2796 97.071 90.8353 96.828C90.3979 96.5781 90.0542 96.2275 89.8043 95.7762C89.5613 95.3249 89.4398 94.8042 89.4398 94.2141C89.4398 93.6171 89.5613 93.0929 89.8043 92.6417C90.0473 92.1904 90.3875 91.8433 90.8248 91.6003C91.2622 91.3573 91.7656 91.2358 92.3348 91.2358C92.8833 91.2358 93.3728 91.3538 93.8032 91.5899C94.2406 91.8259 94.5773 92.1626 94.8133 92.6C95.0563 93.0304 95.1778 93.5268 95.1778 94.0892ZM93.6678 93.6726C93.6609 93.2977 93.5255 92.9992 93.2617 92.777C92.9979 92.5479 92.675 92.4334 92.2932 92.4334C91.9322 92.4334 91.6267 92.5445 91.3768 92.7666C91.1338 92.9818 90.9845 93.2838 90.929 93.6726H93.6678ZM99.439 91.2462C100.126 91.2462 100.682 91.4649 101.105 91.9023C101.529 92.3327 101.74 92.9367 101.74 93.7143V97.0988H100.283V93.9121C100.283 93.4539 100.168 93.1033 99.9389 92.8603C99.7098 92.6104 99.3973 92.4854 99.0016 92.4854C98.599 92.4854 98.2796 92.6104 98.0436 92.8603C97.8144 93.1033 97.6999 93.4539 97.6999 93.9121V97.0988H96.242V91.3295H97.6999V92.0481C97.8943 91.7981 98.1407 91.6037 98.4393 91.4649C98.7447 91.3191 99.078 91.2462 99.439 91.2462ZM104.824 92.5271V95.318C104.824 95.5124 104.869 95.6547 104.96 95.745C105.057 95.8283 105.217 95.8699 105.439 95.8699H106.116V97.0988H105.199C103.97 97.0988 103.356 96.5017 103.356 95.3076V92.5271H102.669V91.3295H103.356V89.9028H104.824V91.3295H106.116V92.5271H104.824ZM107.81 97.1717C107.546 97.1717 107.327 97.0918 107.154 96.9321C106.987 96.7655 106.904 96.5607 106.904 96.3177C106.904 96.0747 106.987 95.8734 107.154 95.7137C107.327 95.5471 107.546 95.4638 107.81 95.4638C108.067 95.4638 108.279 95.5471 108.445 95.7137C108.612 95.8734 108.695 96.0747 108.695 96.3177C108.695 96.5607 108.612 96.7655 108.445 96.9321C108.279 97.0918 108.067 97.1717 107.81 97.1717Z" fill="white"/>
<path d="M56.2903 22.4168L56.2899 23.5936L54.3529 23.593L54.351 29.685L52.8931 29.6846L52.895 23.5925L50.958 23.5919L50.9584 22.4151L56.2903 22.4168ZM58.8112 24.8128C58.9987 24.5074 59.2418 24.2679 59.5404 24.0945C59.8459 23.921 60.1931 23.8343 60.5819 23.8345L60.5814 25.3653L60.1961 25.3652C59.7379 25.365 59.3907 25.4725 59.1546 25.6877C58.9254 25.9028 58.8107 26.2777 58.8106 26.8122L58.8096 29.6864L57.3517 29.686L57.3536 23.9167L58.8115 23.9172L58.8112 24.8128ZM61.188 26.7818C61.1882 26.1986 61.3029 25.6814 61.5322 25.2302C61.7683 24.779 62.0843 24.432 62.4801 24.1891C62.8829 23.9463 63.3307 23.8249 63.8236 23.8251C64.2541 23.8252 64.6289 23.9121 64.9482 24.0858C65.2745 24.2594 65.5348 24.4782 65.7291 24.7421L65.7293 23.9194L67.1977 23.9199L67.1958 29.6891L65.7275 29.6886L65.7278 28.8451C65.5402 29.1158 65.2798 29.3414 64.9465 29.5218C64.6202 29.6952 64.2418 29.7819 63.8113 29.7818C63.3254 29.7816 62.8811 29.6565 62.4785 29.4064C62.0828 29.1564 61.7671 28.8057 61.5312 28.3543C61.3022 27.8961 61.1878 27.3719 61.188 26.7818ZM65.7284 26.804C65.7285 26.45 65.6592 26.1479 65.5204 25.898C65.3817 25.641 65.1943 25.4466 64.9583 25.3146C64.7223 25.1757 64.4689 25.1062 64.1981 25.1061C63.9274 25.106 63.6774 25.1719 63.4483 25.3037C63.2191 25.4356 63.0316 25.6299 62.8857 25.8867C62.7468 26.1366 62.6773 26.4351 62.6772 26.7822C62.6771 27.1294 62.7464 27.4348 62.8852 27.6987C63.0309 27.9556 63.2183 28.1536 63.4473 28.2925C63.6833 28.4314 63.9332 28.5009 64.197 28.501C64.4678 28.5011 64.7212 28.4352 64.9573 28.3034C65.1934 28.1646 65.3809 27.9703 65.5198 27.7204C65.6588 27.4635 65.7283 27.1581 65.7284 26.804ZM71.8187 23.838C72.506 23.8383 73.0613 24.0571 73.4847 24.4946C73.908 24.9252 74.1196 25.5293 74.1193 26.3068L74.1182 29.6913L72.6603 29.6909L72.6613 26.5042C72.6615 26.046 72.547 25.6954 72.318 25.4523C72.089 25.2023 71.7766 25.0773 71.3809 25.0771C70.9782 25.077 70.6588 25.2019 70.4227 25.4517C70.1935 25.6946 70.0789 26.0452 70.0787 26.5034L70.0777 29.69L68.6198 29.6896L68.6216 23.9203L70.0795 23.9208L70.0793 24.6393C70.2738 24.3895 70.5203 24.1952 70.8189 24.0564C71.1244 23.9107 71.4577 23.8379 71.8187 23.838ZM77.7124 29.7862C77.2403 29.786 76.8168 29.7026 76.442 29.5358C76.0671 29.3622 75.7687 29.1295 75.5466 28.8378C75.3315 28.5462 75.2135 28.2233 75.1928 27.8692L76.6612 27.8697C76.6889 28.0919 76.7964 28.2759 76.9838 28.4217C77.1782 28.5676 77.4177 28.6406 77.7023 28.6407C77.98 28.6408 78.1952 28.5853 78.348 28.4742C78.5077 28.3632 78.5876 28.2209 78.5877 28.0474C78.5877 27.8599 78.4906 27.721 78.2962 27.6307C78.1088 27.5335 77.8068 27.4292 77.3903 27.318C76.9599 27.2137 76.6059 27.106 76.3282 26.9948C76.0575 26.8837 75.8215 26.7135 75.6202 26.4843C75.4259 26.2552 75.3288 25.9462 75.3289 25.5574C75.329 25.2381 75.4194 24.9465 75.6 24.6828C75.7875 24.419 76.0514 24.2108 76.3916 24.0582C76.7388 23.9056 77.145 23.8293 77.6101 23.8295C78.2974 23.8297 78.8458 24.0034 79.2553 24.3507C79.6648 24.691 79.8903 25.1527 79.9318 25.7359L78.5363 25.7355C78.5156 25.5064 78.4184 25.3258 78.2449 25.1939C78.0783 25.055 77.8527 24.9855 77.5681 24.9854C77.3043 24.9853 77.0995 25.0338 76.9536 25.131C76.8148 25.2281 76.7453 25.3635 76.7452 25.537C76.7452 25.7314 76.8423 25.8807 77.0367 25.9849C77.231 26.0822 77.533 26.183 77.9426 26.2872C78.3591 26.3915 78.7027 26.4992 78.9734 26.6104C79.2442 26.7215 79.4767 26.8952 79.671 27.1313C79.8723 27.3605 79.9763 27.666 79.9831 28.0478C79.983 28.381 79.8892 28.6795 79.7017 28.9433C79.5211 29.2071 79.2572 29.4153 78.91 29.5679C78.5698 29.7136 78.1706 29.7863 77.7124 29.7862ZM82.6389 24.7579C82.8264 24.4941 83.0833 24.2755 83.4097 24.1021C83.743 23.9217 84.1214 23.8315 84.5449 23.8317C85.0378 23.8318 85.4821 23.9535 85.8777 24.1966C86.2803 24.4397 86.5961 24.7869 86.8251 25.2383C87.061 25.6827 87.1788 26.1999 87.1786 26.79C87.1785 27.3801 87.0603 27.9043 86.8241 28.3624C86.5948 28.8136 86.2788 29.1641 85.8761 29.4139C85.4803 29.6637 85.0359 29.7885 84.543 29.7884C84.1195 29.7882 83.7446 29.7013 83.4184 29.5277C83.0991 29.354 82.8388 29.1352 82.6376 28.8713L82.6364 32.4433L81.1785 32.4428L81.1812 23.9243L82.6391 23.9248L82.6389 24.7579ZM85.6895 26.7895C85.6896 26.4424 85.6168 26.1439 85.4711 25.8939C85.3323 25.637 85.1449 25.4425 84.9089 25.3105C84.6798 25.1786 84.4299 25.1125 84.1592 25.1124C83.8954 25.1124 83.6454 25.1817 83.4093 25.3205C83.1802 25.4523 82.9927 25.6466 82.8468 25.9035C82.7079 26.1603 82.6383 26.4623 82.6382 26.8094C82.6381 27.1565 82.7074 27.4586 82.8462 27.7155C82.9919 27.9724 83.1793 28.1703 83.4084 28.3092C83.6444 28.4412 83.8943 28.5073 84.1581 28.5073C84.4289 28.5074 84.6788 28.4381 84.908 28.2993C85.144 28.1605 85.3316 27.9627 85.4705 27.7059C85.6164 27.4491 85.6894 27.1436 85.6895 26.7895ZM88.8828 29.7689C88.619 29.7688 88.4003 29.6889 88.2268 29.5292C88.0602 29.3625 87.977 29.1577 87.9771 28.9147C87.9771 28.6717 88.0605 28.4704 88.2272 28.3108C88.4008 28.1442 88.6195 28.061 88.8833 28.061C89.1402 28.0611 89.3519 28.1445 89.5185 28.3112C89.6851 28.4709 89.7683 28.6723 89.7682 28.9153C89.7682 29.1582 89.6848 29.363 89.5181 29.5296C89.3514 29.6892 89.1397 29.769 88.8828 29.7689Z" fill="white"/>
</svg>
