<svg width="122" height="123" viewBox="0 0 122 123" fill="none" xmlns="http://www.w3.org/2000/svg">
<path d="M121.8 61.32C121.8 71.0334 119.508 80.6079 115.114 89.2549C110.719 97.9018 104.347 105.374 96.5224 111.056C88.6979 116.737 79.6449 120.466 70.109 121.935C60.573 123.404 50.8269 122.57 41.6734 119.504L60.9 61.32L121.8 61.32Z" fill="#B78E10"/>
<path d="M121.8 61.32C121.8 53.2673 120.225 45.2935 117.164 37.8539C114.104 30.4142 109.618 23.6543 103.963 17.9602L60.9 61.32H121.8Z" fill="#9C7707" fill-opacity="0.5"/>
<path d="M42.5111 119.778C27.1133 114.867 14.2836 103.999 6.84432 89.5633C-0.594957 75.128 -2.03441 58.3083 2.84263 42.8043C7.71966 27.3003 18.5137 14.3821 32.8501 6.89154C47.1866 -0.599054 63.8911 -2.04844 79.2889 2.86222L60.9 61.32L42.5111 119.778Z" fill="#E9B514" fill-opacity="0.6"/>
<path d="M103.963 17.9602C96.9357 10.8846 88.2957 5.64811 78.7966 2.70754L60.9 61.32L103.963 17.9602Z" fill="#FEEDBC"/>
<path d="M18.4043 51.3362C17.9583 51.3362 17.5551 51.2599 17.1946 51.1071C16.8403 50.9544 16.5592 50.7345 16.3515 50.4473C16.1438 50.1602 16.0369 49.8211 16.0308 49.4301H17.4054C17.4237 49.6928 17.5154 49.9005 17.6803 50.0532C17.8514 50.206 18.0836 50.2823 18.3768 50.2823C18.6762 50.2823 18.9114 50.2121 19.0825 50.0716C19.2536 49.9249 19.3391 49.7355 19.3391 49.5034C19.3391 49.314 19.2811 49.1582 19.165 49.036C19.0489 48.9138 18.9023 48.8191 18.7251 48.7519C18.554 48.6786 18.3157 48.5992 18.0103 48.5136C17.5948 48.3914 17.2557 48.2723 16.993 48.1562C16.7364 48.034 16.5134 47.8538 16.324 47.6155C16.1407 47.3711 16.0491 47.0473 16.0491 46.6441C16.0491 46.2653 16.1438 45.9354 16.3332 45.6543C16.5226 45.3733 16.7883 45.1595 17.1305 45.0128C17.4726 44.8601 17.8636 44.7837 18.3035 44.7837C18.9634 44.7837 19.4979 44.9456 19.9073 45.2694C20.3227 45.5871 20.5518 46.0331 20.5946 46.6074H19.1833C19.1711 46.3875 19.0764 46.2073 18.8992 46.0667C18.7281 45.9201 18.499 45.8468 18.2119 45.8468C17.9614 45.8468 17.7598 45.9109 17.607 46.0392C17.4604 46.1675 17.3871 46.3539 17.3871 46.5983C17.3871 46.7693 17.4421 46.9129 17.552 47.029C17.6681 47.139 17.8086 47.2306 17.9736 47.3039C18.1447 47.3711 18.3829 47.4506 18.6884 47.5422C19.1039 47.6644 19.443 47.7866 19.7057 47.9088C19.9684 48.031 20.1944 48.2143 20.3838 48.4586C20.5732 48.703 20.6679 49.0238 20.6679 49.4209C20.6679 49.763 20.5793 50.0807 20.4022 50.374C20.225 50.6672 19.9653 50.9025 19.6232 51.0796C19.2811 51.2507 18.8748 51.3362 18.4043 51.3362ZM21.4503 48.7152C21.4503 48.202 21.5511 47.7469 21.7528 47.3497C21.9605 46.9526 22.2385 46.6471 22.5867 46.4333C22.9411 46.2195 23.3351 46.1126 23.7689 46.1126C24.1477 46.1126 24.4776 46.1889 24.7587 46.3417C25.0458 46.4944 25.2749 46.6869 25.446 46.919V46.195H26.7382V51.2721H25.446V50.5298C25.281 50.7681 25.0519 50.9666 24.7587 51.1255C24.4715 51.2782 24.1386 51.3546 23.7598 51.3546C23.3321 51.3546 22.9411 51.2446 22.5867 51.0247C22.2385 50.8047 21.9605 50.4962 21.7528 50.0991C21.5511 49.6958 21.4503 49.2346 21.4503 48.7152ZM25.446 48.7336C25.446 48.422 25.3849 48.1562 25.2627 47.9363C25.1405 47.7102 24.9756 47.5391 24.7678 47.4231C24.5601 47.3009 24.3371 47.2398 24.0988 47.2398C23.8606 47.2398 23.6406 47.2978 23.439 47.4139C23.2374 47.53 23.0724 47.701 22.9441 47.9271C22.8219 48.147 22.7608 48.4098 22.7608 48.7152C22.7608 49.0207 22.8219 49.2895 22.9441 49.5217C23.0724 49.7478 23.2374 49.9219 23.439 50.0441C23.6467 50.1663 23.8667 50.2274 24.0988 50.2274C24.3371 50.2274 24.5601 50.1693 24.7678 50.0532C24.9756 49.931 25.1405 49.76 25.2627 49.54C25.3849 49.314 25.446 49.0452 25.446 48.7336ZM29.2743 44.4905V51.2721H27.9913V44.4905H29.2743ZM30.212 48.7152C30.212 48.202 30.3128 47.7469 30.5144 47.3497C30.7221 46.9526 31.0001 46.6471 31.3484 46.4333C31.7027 46.2195 32.0968 46.1126 32.5306 46.1126C32.9094 46.1126 33.2393 46.1889 33.5203 46.3417C33.8075 46.4944 34.0366 46.6869 34.2076 46.919V46.195H35.4998V51.2721H34.2076V50.5298C34.0427 50.7681 33.8136 50.9666 33.5203 51.1255C33.2332 51.2782 32.9002 51.3546 32.5214 51.3546C32.0937 51.3546 31.7027 51.2446 31.3484 51.0247C31.0001 50.8047 30.7221 50.4962 30.5144 50.0991C30.3128 49.6958 30.212 49.2346 30.212 48.7152ZM34.2076 48.7336C34.2076 48.422 34.1465 48.1562 34.0244 47.9363C33.9022 47.7102 33.7372 47.5391 33.5295 47.4231C33.3217 47.3009 33.0987 47.2398 32.8605 47.2398C32.6222 47.2398 32.4023 47.2978 32.2006 47.4139C31.999 47.53 31.8341 47.701 31.7058 47.9271C31.5836 48.147 31.5225 48.4098 31.5225 48.7152C31.5225 49.0207 31.5836 49.2895 31.7058 49.5217C31.8341 49.7478 31.999 49.9219 32.2006 50.0441C32.4084 50.1663 32.6283 50.2274 32.8605 50.2274C33.0987 50.2274 33.3217 50.1693 33.5295 50.0532C33.7372 49.931 33.9022 49.76 34.0244 49.54C34.1465 49.314 34.2076 49.0452 34.2076 48.7336ZM34.0335 44.8754L31.9257 45.8376V44.9212L34.0335 43.8306V44.8754ZM38.0359 46.9832C38.2009 46.7143 38.4147 46.5036 38.6774 46.3508C38.9462 46.1981 39.2517 46.1217 39.5939 46.1217V47.4689H39.2548C38.8515 47.4689 38.5461 47.5636 38.3383 47.753C38.1367 47.9424 38.0359 48.2723 38.0359 48.7427V51.2721H36.7529V46.195H38.0359V46.9832ZM41.1087 45.5902C40.8826 45.5902 40.6932 45.5199 40.5405 45.3794C40.3939 45.2328 40.3206 45.0525 40.3206 44.8387C40.3206 44.6249 40.3939 44.4477 40.5405 44.3072C40.6932 44.1605 40.8826 44.0872 41.1087 44.0872C41.3347 44.0872 41.5211 44.1605 41.6677 44.3072C41.8205 44.4477 41.8968 44.6249 41.8968 44.8387C41.8968 45.0525 41.8205 45.2328 41.6677 45.3794C41.5211 45.5199 41.3347 45.5902 41.1087 45.5902ZM41.741 46.195V51.2721H40.458V46.195H41.741ZM45.2631 51.3546C44.7743 51.3546 44.3344 51.2477 43.9434 51.0338C43.5524 50.8139 43.2439 50.5053 43.0178 50.1082C42.7979 49.7111 42.6879 49.2529 42.6879 48.7336C42.6879 48.2143 42.8009 47.756 43.027 47.3589C43.2591 46.9618 43.5738 46.6563 43.9709 46.4425C44.368 46.2225 44.811 46.1126 45.2997 46.1126C45.7885 46.1126 46.2315 46.2225 46.6286 46.4425C47.0257 46.6563 47.3373 46.9618 47.5633 47.3589C47.7955 47.756 47.9116 48.2143 47.9116 48.7336C47.9116 49.2529 47.7925 49.7111 47.5542 50.1082C47.322 50.5053 47.0043 50.8139 46.6011 51.0338C46.204 51.2477 45.758 51.3546 45.2631 51.3546ZM45.2631 50.2365C45.4953 50.2365 45.7121 50.1815 45.9138 50.0716C46.1215 49.9555 46.2864 49.7844 46.4086 49.5584C46.5308 49.3323 46.5919 49.0574 46.5919 48.7336C46.5919 48.2509 46.4636 47.8813 46.207 47.6247C45.9565 47.362 45.648 47.2306 45.2814 47.2306C44.9148 47.2306 44.6063 47.362 44.3558 47.6247C44.1114 47.8813 43.9892 48.2509 43.9892 48.7336C43.9892 49.2162 44.1084 49.5889 44.3467 49.8516C44.591 50.1082 44.8965 50.2365 45.2631 50.2365Z" fill="white"/>
<path d="M80.63 52.6229C80.63 52.9651 80.5475 53.2858 80.3825 53.5852C80.2237 53.8846 79.9701 54.1259 79.6219 54.3092C79.2798 54.4925 78.846 54.5841 78.3206 54.5841H77.2483V57.0402H75.9653V50.6434H78.3206C78.8154 50.6434 79.237 50.729 79.5852 50.9C79.9335 51.0711 80.1931 51.3063 80.3642 51.6057C80.5414 51.9051 80.63 52.2441 80.63 52.6229ZM78.2656 53.5485C78.6199 53.5485 78.8826 53.4691 79.0537 53.3103C79.2248 53.1453 79.3103 52.9162 79.3103 52.6229C79.3103 51.9998 78.9621 51.6882 78.2656 51.6882H77.2483V53.5485H78.2656ZM82.8239 52.7512C82.9889 52.4824 83.2027 52.2716 83.4654 52.1189C83.7342 51.9662 84.0397 51.8898 84.3819 51.8898V53.2369H84.0428C83.6395 53.2369 83.3341 53.3316 83.1263 53.521C82.9247 53.7104 82.8239 54.0404 82.8239 54.5108V57.0402H81.5409V51.9631H82.8239V52.7512ZM89.9657 54.3917C89.9657 54.5749 89.9535 54.7399 89.929 54.8865H86.2175C86.248 55.2531 86.3763 55.5403 86.6024 55.748C86.8284 55.9557 87.1064 56.0596 87.4363 56.0596C87.9129 56.0596 88.2519 55.8549 88.4536 55.4456H89.8374C89.6907 55.9343 89.4097 56.3376 88.9943 56.6553C88.5788 56.9668 88.0687 57.1226 87.4638 57.1226C86.975 57.1226 86.5352 57.0157 86.1441 56.8019C85.7592 56.5819 85.4568 56.2734 85.2369 55.8763C85.023 55.4792 84.9161 55.0209 84.9161 54.5016C84.9161 53.9762 85.023 53.5149 85.2369 53.1178C85.4507 52.7207 85.7501 52.4152 86.135 52.2014C86.5199 51.9875 86.9628 51.8806 87.4638 51.8806C87.9465 51.8806 88.3772 51.9845 88.756 52.1922C89.1409 52.3999 89.4372 52.6963 89.6449 53.0812C89.8588 53.4599 89.9657 53.8968 89.9657 54.3917ZM88.6368 54.0251C88.6307 53.6952 88.5116 53.4325 88.2794 53.2369C88.0473 53.0353 87.7632 52.9345 87.4272 52.9345C87.1095 52.9345 86.8406 53.0323 86.6207 53.2278C86.4069 53.4172 86.2755 53.6829 86.2266 54.0251H88.6368ZM92.845 57.1226C92.4296 57.1226 92.0569 57.0493 91.727 56.9027C91.397 56.75 91.1343 56.5453 90.9388 56.2887C90.7494 56.0321 90.6456 55.748 90.6272 55.4364H91.9194C91.9438 55.6319 92.0385 55.7938 92.2035 55.9221C92.3746 56.0504 92.5854 56.1146 92.8358 56.1146C93.0802 56.1146 93.2696 56.0657 93.404 55.9679C93.5446 55.8702 93.6148 55.7449 93.6148 55.5922C93.6148 55.4272 93.5293 55.305 93.3582 55.2256C93.1933 55.1401 92.9275 55.0484 92.5609 54.9507C92.1821 54.859 91.8705 54.7643 91.6261 54.6666C91.3879 54.5688 91.1802 54.4192 91.003 54.2175C90.8319 54.0159 90.7464 53.744 90.7464 53.4019C90.7464 53.1209 90.8258 52.8643 90.9846 52.6321C91.1496 52.3999 91.3818 52.2166 91.6811 52.0822C91.9866 51.9478 92.344 51.8806 92.7534 51.8806C93.3582 51.8806 93.8409 52.0334 94.2013 52.3388C94.5618 52.6382 94.7604 53.0445 94.797 53.5577H93.569C93.5507 53.3561 93.4651 53.1972 93.3124 53.0812C93.1658 52.959 92.9672 52.8979 92.7167 52.8979C92.4845 52.8979 92.3043 52.9406 92.176 53.0262C92.0538 53.1117 91.9927 53.2308 91.9927 53.3836C91.9927 53.5546 92.0783 53.686 92.2493 53.7776C92.4204 53.8632 92.6862 53.9518 93.0466 54.0434C93.4132 54.1351 93.7156 54.2298 93.9539 54.3275C94.1922 54.4253 94.3968 54.578 94.5679 54.7857C94.7451 54.9873 94.8367 55.2562 94.8428 55.5922C94.8428 55.8855 94.7604 56.1482 94.5954 56.3803C94.4366 56.6125 94.2044 56.7958 93.8989 56.9302C93.5995 57.0585 93.2482 57.1226 92.845 57.1226ZM100.616 54.3917C100.616 54.5749 100.603 54.7399 100.579 54.8865H96.8675C96.898 55.2531 97.0263 55.5403 97.2524 55.748C97.4784 55.9557 97.7564 56.0596 98.0863 56.0596C98.5629 56.0596 98.9019 55.8549 99.1036 55.4456H100.487C100.341 55.9343 100.06 56.3376 99.6443 56.6553C99.2288 56.9668 98.7187 57.1226 98.1138 57.1226C97.625 57.1226 97.1851 57.0157 96.7941 56.8019C96.4092 56.5819 96.1068 56.2734 95.8869 55.8763C95.673 55.4792 95.5661 55.0209 95.5661 54.5016C95.5661 53.9762 95.673 53.5149 95.8869 53.1178C96.1007 52.7207 96.4001 52.4152 96.785 52.2014C97.1699 51.9875 97.6128 51.8806 98.1138 51.8806C98.5965 51.8806 99.0272 51.9845 99.406 52.1922C99.7909 52.3999 100.087 52.6963 100.295 53.0812C100.509 53.4599 100.616 53.8968 100.616 54.3917ZM99.2868 54.0251C99.2807 53.6952 99.1616 53.4325 98.9294 53.2369C98.6973 53.0353 98.4132 52.9345 98.0771 52.9345C97.7595 52.9345 97.4906 53.0323 97.2707 53.2278C97.0568 53.4172 96.9255 53.6829 96.8766 54.0251H99.2868ZM104.366 51.8898C104.97 51.8898 105.459 52.0822 105.832 52.4671C106.205 52.8459 106.391 53.3775 106.391 54.0617V57.0402H105.108V54.2359C105.108 53.8326 105.007 53.5241 104.806 53.3103C104.604 53.0903 104.329 52.9803 103.981 52.9803C103.626 52.9803 103.345 53.0903 103.138 53.3103C102.936 53.5241 102.835 53.8326 102.835 54.2359V57.0402H101.552V51.9631H102.835V52.5954C103.006 52.3755 103.223 52.2044 103.486 52.0822C103.755 51.9539 104.048 51.8898 104.366 51.8898ZM109.105 53.017V55.4731C109.105 55.6441 109.145 55.7694 109.224 55.8488C109.309 55.9221 109.45 55.9588 109.646 55.9588H110.241V57.0402H109.435C108.353 57.0402 107.813 56.5147 107.813 55.4639V53.017H107.208V51.9631H107.813V50.7076H109.105V51.9631H110.241V53.017H109.105ZM115.884 54.3917C115.884 54.5749 115.871 54.7399 115.847 54.8865H112.135C112.166 55.2531 112.294 55.5403 112.52 55.748C112.746 55.9557 113.024 56.0596 113.354 56.0596C113.831 56.0596 114.17 55.8549 114.372 55.4456H115.755C115.609 55.9343 115.328 56.3376 114.912 56.6553C114.497 56.9668 113.987 57.1226 113.382 57.1226C112.893 57.1226 112.453 57.0157 112.062 56.8019C111.677 56.5819 111.375 56.2734 111.155 55.8763C110.941 55.4792 110.834 55.0209 110.834 54.5016C110.834 53.9762 110.941 53.5149 111.155 53.1178C111.369 52.7207 111.668 52.4152 112.053 52.2014C112.438 51.9875 112.881 51.8806 113.382 51.8806C113.864 51.8806 114.295 51.9845 114.674 52.1922C115.059 52.3999 115.355 52.6963 115.563 53.0812C115.777 53.4599 115.884 53.8968 115.884 54.3917ZM114.555 54.0251C114.549 53.6952 114.43 53.4325 114.197 53.2369C113.965 53.0353 113.681 52.9345 113.345 52.9345C113.027 52.9345 112.759 53.0323 112.539 53.2278C112.325 53.4172 112.193 53.6829 112.145 54.0251H114.555Z" fill="white"/>
<path d="M69.7366 84.2433V90.64H68.4535V84.2433H69.7366ZM73.8176 85.4896C74.4225 85.4896 74.9112 85.6821 75.2839 86.067C75.6566 86.4458 75.843 86.9773 75.843 87.6616V90.64H74.5599V87.8357C74.5599 87.4325 74.4591 87.124 74.2575 86.9101C74.0559 86.6902 73.781 86.5802 73.4327 86.5802C73.0784 86.5802 72.7973 86.6902 72.5896 86.9101C72.388 87.124 72.2872 87.4325 72.2872 87.8357V90.64H71.0042V85.563H72.2872V86.1953C72.4583 85.9754 72.6751 85.8043 72.9379 85.6821C73.2067 85.5538 73.4999 85.4896 73.8176 85.4896ZM79.18 89.4578L80.463 85.563H81.8285L79.9498 90.64H78.3919L76.5223 85.563H77.897L79.18 89.4578ZM87.2688 87.9915C87.2688 88.1748 87.2566 88.3398 87.2321 88.4864H83.5206C83.5511 88.853 83.6794 89.1401 83.9055 89.3478C84.1315 89.5556 84.4095 89.6594 84.7394 89.6594C85.216 89.6594 85.555 89.4548 85.7567 89.0454H87.1405C86.9938 89.5342 86.7128 89.9374 86.2974 90.2551C85.8819 90.5667 85.3718 90.7225 84.7669 90.7225C84.2781 90.7225 83.8383 90.6156 83.4472 90.4017C83.0623 90.1818 82.7599 89.8733 82.54 89.4761C82.3261 89.079 82.2192 88.6208 82.2192 88.1015C82.2192 87.5761 82.3261 87.1148 82.54 86.7177C82.7538 86.3205 83.0532 86.0151 83.4381 85.8012C83.823 85.5874 84.2659 85.4805 84.7669 85.4805C85.2496 85.4805 85.6803 85.5843 86.0591 85.7921C86.444 85.9998 86.7403 86.2961 86.948 86.681C87.1619 87.0598 87.2688 87.4966 87.2688 87.9915ZM85.9399 87.6249C85.9338 87.295 85.8147 87.0323 85.5825 86.8368C85.3504 86.6352 85.0663 86.5344 84.7302 86.5344C84.4126 86.5344 84.1437 86.6321 83.9238 86.8276C83.7099 87.017 83.5786 87.2828 83.5297 87.6249H85.9399ZM90.1481 90.7225C89.7327 90.7225 89.36 90.6492 89.0301 90.5025C88.7001 90.3498 88.4374 90.1451 88.2419 89.8885C88.0525 89.6319 87.9487 89.3478 87.9303 89.0363H89.2225C89.2469 89.2318 89.3416 89.3937 89.5066 89.522C89.6777 89.6503 89.8885 89.7144 90.1389 89.7144C90.3833 89.7144 90.5727 89.6655 90.7071 89.5678C90.8477 89.47 90.9179 89.3448 90.9179 89.192C90.9179 89.0271 90.8324 88.9049 90.6613 88.8255C90.4964 88.7399 90.2306 88.6483 89.864 88.5505C89.4852 88.4589 89.1736 88.3642 88.9292 88.2664C88.691 88.1687 88.4832 88.019 88.3061 87.8174C88.135 87.6158 88.0495 87.3439 88.0495 87.0018C88.0495 86.7207 88.1289 86.4641 88.2877 86.232C88.4527 85.9998 88.6849 85.8165 88.9842 85.6821C89.2897 85.5477 89.6471 85.4805 90.0565 85.4805C90.6613 85.4805 91.144 85.6332 91.5044 85.9387C91.8649 86.2381 92.0635 86.6444 92.1001 87.1576H90.8721C90.8538 86.9559 90.7682 86.7971 90.6155 86.681C90.4689 86.5588 90.2703 86.4977 90.0198 86.4977C89.7876 86.4977 89.6074 86.5405 89.4791 86.626C89.3569 86.7116 89.2958 86.8307 89.2958 86.9834C89.2958 87.1545 89.3814 87.2859 89.5524 87.3775C89.7235 87.463 89.9893 87.5516 90.3497 87.6433C90.7163 87.7349 91.0187 87.8296 91.257 87.9274C91.4953 88.0251 91.6999 88.1779 91.871 88.3856C92.0482 88.5872 92.1398 88.856 92.1459 89.192C92.1459 89.4853 92.0635 89.748 91.8985 89.9802C91.7397 90.2123 91.5075 90.3956 91.202 90.53C90.9026 90.6583 90.5513 90.7225 90.1481 90.7225ZM94.6929 86.6169V89.0729C94.6929 89.244 94.7326 89.3692 94.8121 89.4486C94.8976 89.522 95.0381 89.5586 95.2336 89.5586H95.8293V90.64H95.0228C93.9414 90.64 93.4007 90.1146 93.4007 89.0637V86.6169H92.7959V85.563H93.4007V84.3074H94.6929V85.563H95.8293V86.6169H94.6929ZM97.3203 90.7042C97.0881 90.7042 96.8957 90.6339 96.7429 90.4934C96.5963 90.3468 96.523 90.1665 96.523 89.9527C96.523 89.7389 96.5963 89.5617 96.7429 89.4212C96.8957 89.2745 97.0881 89.2012 97.3203 89.2012C97.5464 89.2012 97.7327 89.2745 97.8793 89.4212C98.026 89.5617 98.0993 89.7389 98.0993 89.9527C98.0993 90.1665 98.026 90.3468 97.8793 90.4934C97.7327 90.6339 97.5464 90.7042 97.3203 90.7042Z" fill="white"/>
<path d="M73.9008 39.7825L72.2698 41.7397L72.931 42.8501L72.0685 43.885L68.6479 37.9837L69.6042 36.8362L75.9701 39.2033L75.1018 40.2453L73.9008 39.7825ZM72.8939 39.3876L70.2572 38.3716L71.7087 40.8097L72.8939 39.3876ZM74.0237 34.7537C73.952 34.4771 73.9497 34.1793 74.0169 33.8601C74.0833 33.5323 74.2358 33.2253 74.4744 32.939C74.7521 32.6057 75.084 32.3743 75.4703 32.2448C75.8605 32.1106 76.2718 32.0942 76.7043 32.1956C77.1359 32.2884 77.5501 32.5023 77.9468 32.8375C78.3435 33.1727 78.6293 33.5501 78.8044 33.97C78.9786 34.3811 79.0363 34.7938 78.9775 35.208C78.9226 35.6175 78.7562 35.9888 78.4785 36.322C78.2399 36.6083 77.9704 36.8125 77.6699 36.9345C77.3733 37.0518 77.0796 37.1036 76.7889 37.0899L79.19 39.1186L78.3686 40.1042L72.6423 35.2662L73.4637 34.2805L74.0237 34.7537ZM77.1078 33.8443C76.8745 33.6471 76.6327 33.5268 76.3826 33.4834C76.1317 33.4314 75.8954 33.4477 75.6737 33.5324C75.456 33.6124 75.2709 33.7439 75.1183 33.9269C74.9697 34.1053 74.8755 34.3137 74.8359 34.5521C74.7955 34.7819 74.8206 35.019 74.9111 35.2635C75.0056 35.5033 75.1694 35.7217 75.4028 35.9189C75.6361 36.116 75.8783 36.2406 76.1292 36.2926C76.384 36.3399 76.6226 36.3256 76.845 36.2496C77.0666 36.1649 77.2518 36.0334 77.4004 35.855C77.553 35.672 77.6471 35.4636 77.6828 35.2299C77.7225 34.9914 77.6951 34.7523 77.6006 34.5126C77.5101 34.2681 77.3458 34.0453 77.1078 33.8443ZM82.003 32.0928C81.6901 32.4682 81.3268 32.7372 80.9132 32.8995C80.4948 33.058 80.0616 33.0959 79.6136 33.0132C79.1694 32.9259 78.749 32.7147 78.3523 32.3795C77.9556 32.0444 77.678 31.6618 77.5193 31.2318C77.3646 30.7972 77.3327 30.3583 77.4236 29.9153C77.5098 29.4682 77.7094 29.057 78.0223 28.6815C78.3352 28.306 78.7028 28.0367 79.125 27.8736C79.5426 27.7065 79.9754 27.6643 80.4235 27.747C80.8755 27.8249 81.2998 28.0314 81.6965 28.3666C82.0932 28.7018 82.3669 29.089 82.5177 29.5283C82.6724 29.963 82.7047 30.4062 82.6146 30.8579C82.5237 31.301 82.3198 31.7126 82.003 32.0928ZM81.149 31.3712C81.2976 31.1928 81.3945 30.9907 81.4395 30.7649C81.4838 30.5304 81.4588 30.2933 81.3643 30.0535C81.2699 29.8137 81.099 29.5894 80.8516 29.3804C80.483 29.0689 80.1185 28.9289 79.7582 28.9604C79.3972 28.9833 79.0993 29.1356 78.8646 29.4172C78.6299 29.6988 78.5328 30.0206 78.5731 30.3825C78.6126 30.7359 78.8167 31.0683 79.1854 31.3798C79.5541 31.6913 79.9151 31.8403 80.2683 31.8268C80.6207 31.8047 80.9143 31.6528 81.149 31.3712ZM85.5449 27.8426C85.2789 28.1618 84.9843 28.4008 84.6611 28.5596C84.3332 28.7145 84.0087 28.7842 83.6875 28.7688C83.3703 28.7487 83.0868 28.6451 82.837 28.4581L83.6643 27.4654C83.8292 27.5728 84.0135 27.6046 84.2172 27.5606C84.4247 27.512 84.6086 27.3915 84.769 27.1991C84.9254 27.0113 85.0093 26.8343 85.0207 26.6679C85.036 26.4969 84.9853 26.3621 84.8687 26.2635C84.7426 26.1571 84.5946 26.1439 84.4244 26.2241C84.2534 26.2956 84.0133 26.4406 83.7039 26.6591C83.3914 26.891 83.1196 27.0692 82.8885 27.1939C82.6613 27.3138 82.414 27.3768 82.1465 27.3828C81.883 27.3841 81.6206 27.2744 81.3592 27.0535C81.1445 26.8722 80.9994 26.6455 80.9237 26.3737C80.852 26.0971 80.8606 25.8005 80.9496 25.4838C81.0425 25.1623 81.22 24.8444 81.482 24.5299C81.8692 24.0653 82.2949 23.7931 82.759 23.7133C83.2185 23.6296 83.6559 23.7393 84.0714 24.0423L83.2852 24.9857C83.1195 24.8697 82.9434 24.8329 82.757 24.8753C82.5697 24.9091 82.396 25.0222 82.2356 25.2146C82.087 25.393 82.0043 25.559 81.9875 25.7128C81.9746 25.8619 82.0265 25.9857 82.1431 26.0843C82.2738 26.1947 82.4289 26.2137 82.6084 26.1414C82.7833 26.0652 83.0211 25.9182 83.3218 25.7005C83.6265 25.478 83.8925 25.3068 84.1197 25.1868C84.3469 25.0669 84.5946 25.0082 84.8628 25.0109C85.1302 25.0049 85.3942 25.108 85.6548 25.3201C85.8788 25.5094 86.0267 25.7423 86.0984 26.0189C86.1741 26.2907 86.1655 26.5874 86.0726 26.9088C85.9789 27.2216 85.803 27.5329 85.5449 27.8426ZM85.3183 21.7015L87.1944 23.2866C87.3251 23.397 87.4461 23.4474 87.5577 23.4376C87.6684 23.4192 87.7864 23.3349 87.9115 23.1847L88.2929 22.7271L89.1189 23.425L88.6026 24.0446C87.9103 24.8753 87.1628 24.9516 86.3601 24.2734L84.4911 22.6942L84.1038 23.1589L83.2988 22.4787L83.686 22.014L82.727 21.2038L83.5542 20.2111L84.5133 21.0214L85.2408 20.1484L86.0458 20.8286L85.3183 21.7015ZM87.5454 21.3194C87.1534 20.9882 86.8702 20.617 86.696 20.2058C86.5256 19.79 86.4702 19.3793 86.5298 18.9737C86.5934 18.5635 86.764 18.1918 87.0417 17.8585C87.2842 17.5675 87.5537 17.3634 87.8503 17.2461C88.1508 17.124 88.4445 17.0722 88.7313 17.0906L88.1783 16.6234L89.0056 15.6307L92.8837 18.9074L92.0565 19.9L91.4895 19.421C91.5659 19.7015 91.5709 20.0056 91.5045 20.3334C91.4373 20.6526 91.2825 20.9577 91.04 21.2487C90.7662 21.5772 90.4319 21.8066 90.037 21.9369C89.646 22.0625 89.2324 22.0769 88.7961 21.9802C88.359 21.8748 87.9421 21.6546 87.5454 21.3194ZM90.1174 18.2617C89.8794 18.0606 89.6373 17.936 89.391 17.888C89.1401 17.8359 88.9039 17.8523 88.6822 17.9369C88.4559 18.0176 88.2665 18.1495 88.1139 18.3326C87.9614 18.5156 87.8649 18.722 87.8245 18.9518C87.7841 19.1816 87.8092 19.4188 87.8997 19.6632C87.9895 19.899 88.151 20.1155 88.3844 20.3127C88.6177 20.5098 88.8622 20.6364 89.1178 20.6923C89.3726 20.7397 89.6112 20.7253 89.8336 20.6493C90.0599 20.5686 90.2474 20.439 90.396 20.2607C90.5486 20.0776 90.647 19.8689 90.6913 19.6344C90.7309 19.3959 90.7059 19.1588 90.6161 18.923C90.5217 18.6832 90.3554 18.4628 90.1174 18.2617ZM94.9928 16.5054C94.7268 16.8246 94.4322 17.0636 94.109 17.2224C93.7811 17.3773 93.4566 17.447 93.1354 17.4316C92.8181 17.4115 92.5346 17.3079 92.2849 17.1209L93.1121 16.1282C93.2771 16.2356 93.4614 16.2674 93.665 16.2234C93.8725 16.1748 94.0565 16.0543 94.2169 15.8619C94.3733 15.6741 94.4572 15.4971 94.4686 15.3308C94.4839 15.1597 94.4332 15.0249 94.3165 14.9263C94.1905 14.8199 94.0424 14.8067 93.8722 14.8869C93.7013 14.9584 93.4612 15.1034 93.1518 15.3219C92.8393 15.5538 92.5675 15.732 92.3364 15.8567C92.1092 15.9767 91.8618 16.0396 91.5944 16.0456C91.3309 16.0469 91.0684 15.9372 90.8071 15.7164C90.5924 15.535 90.4473 15.3084 90.3716 15.0365C90.2999 14.7599 90.3085 14.4633 90.3975 14.1466C90.4904 13.8252 90.6678 13.5072 90.9299 13.1928C91.3171 12.7281 91.7428 12.4559 92.2069 12.3761C92.6663 12.2924 93.1038 12.4021 93.5193 12.7051L92.7331 13.6485C92.5674 13.5325 92.3913 13.4957 92.2048 13.5381C92.0176 13.5719 91.8438 13.685 91.6835 13.8774C91.5348 14.0558 91.4521 14.2218 91.4353 14.3756C91.4224 14.5247 91.4743 14.6485 91.591 14.7471C91.7217 14.8575 91.8768 14.8765 92.0563 14.8043C92.2311 14.728 92.469 14.5811 92.7697 14.3633C93.0744 14.1408 93.3403 13.9696 93.5676 13.8497C93.7948 13.7297 94.0425 13.671 94.3107 13.6737C94.5781 13.6677 94.8421 13.7708 95.1027 13.983C95.3267 14.1722 95.4746 14.4051 95.5463 14.6817C95.622 14.9535 95.6133 15.2502 95.5205 15.5716C95.4268 15.8844 95.2509 16.1957 94.9928 16.5054Z" fill="white"/>
</svg>
