<svg width="152" height="130" viewBox="0 0 152 152" fill="none" xmlns="http://www.w3.org/2000/svg">
<path d="M142.928 40.7569C149.849 54.0441 152.674 69.085 151.046 83.9777C149.418 98.8703 143.41 112.946 133.783 124.424C124.156 135.903 111.341 144.268 96.9586 148.464C82.5766 152.659 67.2736 152.495 52.9847 147.993L75.7471 75.7471L142.928 40.7569Z" fill="#6B0000" fill-opacity="0.8"/>
<path d="M52.8751 147.959C40.9998 144.197 30.2355 137.565 21.5355 128.65C12.8356 119.735 6.46856 108.812 2.99845 96.8482C-0.471647 84.8847 -0.937721 72.2499 1.64152 60.0632C4.22076 47.8764 9.7657 36.5139 17.7852 26.982C25.8046 17.4501 36.0511 10.0431 47.617 5.41703C59.1828 0.791003 71.711 -0.911248 84.0919 0.461062C96.4728 1.83337 108.324 6.23788 118.596 13.2845C128.868 20.331 137.244 29.8021 142.981 40.8589L75.7471 75.7471L52.8751 147.959Z" fill="#B78E10" fill-opacity="0.8"/>
<path d="M21.4092 65.1548C21.1668 64.7104 20.8335 64.3721 20.4093 64.1398C19.9852 63.9075 19.4903 63.7914 18.9247 63.7914C18.2985 63.7914 17.743 63.9328 17.2583 64.2155C16.7735 64.4983 16.3948 64.9023 16.1221 65.4275C15.8494 65.9527 15.713 66.5587 15.713 67.2454C15.713 67.9524 15.8494 68.5685 16.1221 69.0937C16.4049 69.6188 16.7937 70.0228 17.2886 70.3056C17.7834 70.5884 18.3591 70.7298 19.0156 70.7298C19.8236 70.7298 20.4851 70.5177 21.0002 70.0935C21.5153 69.6592 21.8536 69.0583 22.0152 68.2907H18.3793V66.6698H24.1058V68.518C23.9644 69.2553 23.6614 69.937 23.1968 70.5632C22.7323 71.1893 22.1313 71.6943 21.3941 72.0781C20.6669 72.4518 19.8488 72.6386 18.9399 72.6386C17.9198 72.6386 16.9957 72.4114 16.1675 71.9569C15.3494 71.4923 14.7031 70.851 14.2284 70.0329C13.7638 69.2149 13.5315 68.2857 13.5315 67.2454C13.5315 66.2052 13.7638 65.276 14.2284 64.4579C14.7031 63.6298 15.3494 62.9884 16.1675 62.534C16.9957 62.0694 17.9147 61.8371 18.9247 61.8371C20.1165 61.8371 21.1517 62.13 22.0303 62.7158C22.909 63.2914 23.515 64.1045 23.8483 65.1548H21.4092ZM25.1296 68.321C25.1296 67.4727 25.2962 66.7203 25.6295 66.0638C25.9729 65.4073 26.4324 64.9023 27.0081 64.5488C27.5939 64.1953 28.2453 64.0186 28.9624 64.0186C29.5886 64.0186 30.1339 64.1448 30.5985 64.3973C31.0732 64.6498 31.4519 64.968 31.7347 65.3518V64.1549H33.8708V72.5477H31.7347V71.3206C31.462 71.7145 31.0833 72.0427 30.5985 72.3053C30.1238 72.5578 29.5734 72.6841 28.9472 72.6841C28.2403 72.6841 27.5939 72.5023 27.0081 72.1387C26.4324 71.7751 25.9729 71.2651 25.6295 70.6086C25.2962 69.942 25.1296 69.1795 25.1296 68.321ZM31.7347 68.3513C31.7347 67.8363 31.6337 67.3969 31.4317 67.0333C31.2297 66.6597 30.9571 66.3769 30.6137 66.185C30.2703 65.983 29.9016 65.882 29.5078 65.882C29.1139 65.882 28.7503 65.9779 28.417 66.1698C28.0837 66.3617 27.811 66.6445 27.5989 67.0182C27.3969 67.3818 27.2959 67.8161 27.2959 68.321C27.2959 68.826 27.3969 69.2704 27.5989 69.6542C27.811 70.0279 28.0837 70.3157 28.417 70.5177C28.7604 70.7197 29.124 70.8207 29.5078 70.8207C29.9016 70.8207 30.2703 70.7247 30.6137 70.5329C30.9571 70.3309 31.2297 70.0481 31.4317 69.6845C31.6337 69.3108 31.7347 68.8664 31.7347 68.3513ZM40.5931 64.0338C41.593 64.0338 42.4009 64.3519 43.017 64.9882C43.6331 65.6143 43.9411 66.493 43.9411 67.6242V72.5477H41.8202V67.912C41.8202 67.2454 41.6536 66.7354 41.3203 66.3819C40.987 66.0183 40.5325 65.8365 39.9568 65.8365C39.3711 65.8365 38.9065 66.0183 38.5631 66.3819C38.2298 66.7354 38.0632 67.2454 38.0632 67.912V72.5477H35.9422V64.1549H38.0632V65.2003C38.3459 64.8367 38.7045 64.5539 39.1388 64.3519C39.5832 64.1398 40.0679 64.0338 40.5931 64.0338ZM50.6846 64.0338C51.3209 64.0338 51.8865 64.1751 52.3814 64.4579C52.8763 64.7306 53.26 65.1397 53.5327 65.685C53.8155 66.2203 53.9569 66.8667 53.9569 67.6242V72.5477H51.836V67.912C51.836 67.2454 51.6694 66.7354 51.3361 66.3819C51.0028 66.0183 50.5483 65.8365 49.9726 65.8365C49.3868 65.8365 48.9223 66.0183 48.5789 66.3819C48.2456 66.7354 48.0789 67.2454 48.0789 67.912V72.5477H45.958V61.3372H48.0789V65.2003C48.3516 64.8367 48.7152 64.5539 49.1697 64.3519C49.6242 64.1398 50.1292 64.0338 50.6846 64.0338ZM59.7006 72.6841C58.8926 72.6841 58.1654 72.5073 57.519 72.1538C56.8727 71.7903 56.3626 71.2802 55.9889 70.6238C55.6254 69.9673 55.4436 69.2098 55.4436 68.3513C55.4436 67.4929 55.6304 66.7354 56.0041 66.0789C56.3879 65.4225 56.908 64.9175 57.5645 64.564C58.221 64.2004 58.9532 64.0186 59.7612 64.0186C60.5691 64.0186 61.3013 64.2004 61.9578 64.564C62.6143 64.9175 63.1294 65.4225 63.5031 66.0789C63.8868 66.7354 64.0787 67.4929 64.0787 68.3513C64.0787 69.2098 63.8818 69.9673 63.4879 70.6238C63.1041 71.2802 62.5789 71.7903 61.9124 72.1538C61.2559 72.5073 60.5186 72.6841 59.7006 72.6841ZM59.7006 70.8358C60.0843 70.8358 60.4429 70.7449 60.7762 70.5632C61.1196 70.3713 61.3922 70.0885 61.5942 69.7148C61.7962 69.3411 61.8972 68.8866 61.8972 68.3513C61.8972 67.5535 61.6851 66.9424 61.2609 66.5183C60.8469 66.084 60.3368 65.8668 59.7309 65.8668C59.1249 65.8668 58.6148 66.084 58.2008 66.5183C57.7968 66.9424 57.5948 67.5535 57.5948 68.3513C57.5948 69.1492 57.7917 69.7653 58.1856 70.1996C58.5896 70.6238 59.0946 70.8358 59.7006 70.8358ZM68.8462 72.6841C68.1594 72.6841 67.5433 72.5629 66.998 72.3205C66.4526 72.068 66.0183 71.7297 65.6951 71.3055C65.382 70.8813 65.2103 70.4117 65.18 69.8966H67.3161C67.3565 70.2198 67.513 70.4874 67.7857 70.6995C68.0685 70.9116 68.417 71.0176 68.831 71.0176C69.235 71.0176 69.5481 70.9368 69.7703 70.7752C70.0026 70.6137 70.1187 70.4066 70.1187 70.1541C70.1187 69.8814 69.9774 69.6794 69.6946 69.5481C69.4219 69.4067 68.9825 69.2553 68.3766 69.0937C67.7504 68.9422 67.2353 68.7856 66.8313 68.624C66.4374 68.4624 66.0941 68.215 65.8012 67.8817C65.5184 67.5484 65.377 67.099 65.377 66.5334C65.377 66.0688 65.5083 65.6446 65.7709 65.2609C66.0436 64.8771 66.4273 64.5741 66.9222 64.3519C67.4272 64.1297 68.018 64.0186 68.6947 64.0186C69.6946 64.0186 70.4924 64.2711 71.0883 64.7761C71.6842 65.271 72.0124 65.9426 72.073 66.7909H70.043C70.0127 66.4577 69.8713 66.1951 69.6188 66.0032C69.3764 65.8012 69.0482 65.7002 68.6341 65.7002C68.2503 65.7002 67.9524 65.7709 67.7403 65.9123C67.5383 66.0537 67.4373 66.2506 67.4373 66.5031C67.4373 66.7859 67.5787 67.003 67.8615 67.1545C68.1443 67.2959 68.5836 67.4424 69.1795 67.5939C69.7855 67.7454 70.2854 67.9019 70.6793 68.0635C71.0732 68.2251 71.4115 68.4776 71.6943 68.821C71.9872 69.1543 72.1387 69.5986 72.1488 70.1541C72.1488 70.6389 72.0124 71.0732 71.7397 71.457C71.4771 71.8408 71.0934 72.1437 70.5884 72.3659C70.0935 72.578 69.5128 72.6841 68.8462 72.6841Z" fill="white"/>
<path d="M87.4837 96.7163C87.2413 96.272 86.9081 95.9336 86.4839 95.7013C86.0597 95.469 85.5648 95.3529 84.9992 95.3529C84.373 95.3529 83.8176 95.4943 83.3328 95.7771C82.848 96.0599 82.4693 96.4638 82.1966 96.989C81.9239 97.5142 81.7875 98.1202 81.7875 98.807C81.7875 99.5139 81.9239 100.13 82.1966 100.655C82.4794 101.18 82.8682 101.584 83.3631 101.867C83.858 102.15 84.4336 102.291 85.0901 102.291C85.8981 102.291 86.5596 102.079 87.0747 101.655C87.5898 101.221 87.9281 100.62 88.0897 99.8523H84.4538V98.2313H90.1803V100.08C90.0389 100.817 89.7359 101.499 89.2714 102.125C88.8068 102.751 88.2059 103.256 87.4686 103.64C86.7414 104.013 85.9233 104.2 85.0144 104.2C83.9943 104.2 83.0702 103.973 82.242 103.518C81.424 103.054 80.7776 102.413 80.3029 101.594C79.8383 100.776 79.606 99.8472 79.606 98.807C79.606 97.7667 79.8383 96.8375 80.3029 96.0195C80.7776 95.1913 81.424 94.55 82.242 94.0955C83.0702 93.6309 83.9893 93.3986 84.9992 93.3986C86.191 93.3986 87.2262 93.6915 88.1049 94.2773C88.9835 94.853 89.5895 95.666 89.9228 96.7163H87.4837ZM91.2041 99.8826C91.2041 99.0342 91.3707 98.2818 91.704 97.6253C92.0474 96.9688 92.5069 96.4638 93.0826 96.1104C93.6684 95.7569 94.3198 95.5801 95.0369 95.5801C95.6631 95.5801 96.2085 95.7064 96.673 95.9589C97.1477 96.2114 97.5265 96.5295 97.8092 96.9133V95.7165H99.9453V104.109H97.8092V102.882C97.5366 103.276 97.1578 103.604 96.673 103.867C96.1984 104.119 95.6479 104.246 95.0218 104.246C94.3148 104.246 93.6684 104.064 93.0826 103.7C92.5069 103.337 92.0474 102.827 91.704 102.17C91.3707 101.504 91.2041 100.741 91.2041 99.8826ZM97.8092 99.9129C97.8092 99.3978 97.7082 98.9584 97.5063 98.5949C97.3043 98.2212 97.0316 97.9384 96.6882 97.7465C96.3448 97.5445 95.9762 97.4435 95.5823 97.4435C95.1884 97.4435 94.8248 97.5395 94.4915 97.7313C94.1582 97.9232 93.8855 98.206 93.6735 98.5797C93.4715 98.9433 93.3705 99.3776 93.3705 99.8826C93.3705 100.388 93.4715 100.832 93.6735 101.216C93.8855 101.589 94.1582 101.877 94.4915 102.079C94.8349 102.281 95.1985 102.382 95.5823 102.382C95.9762 102.382 96.3448 102.286 96.6882 102.094C97.0316 101.892 97.3043 101.61 97.5063 101.246C97.7082 100.872 97.8092 100.428 97.8092 99.9129ZM105.228 104.246C104.542 104.246 103.926 104.124 103.38 103.882C102.835 103.63 102.401 103.291 102.077 102.867C101.764 102.443 101.593 101.973 101.562 101.458H103.698C103.739 101.781 103.895 102.049 104.168 102.261C104.451 102.473 104.799 102.579 105.213 102.579C105.617 102.579 105.93 102.498 106.153 102.337C106.385 102.175 106.501 101.968 106.501 101.716C106.501 101.443 106.36 101.241 106.077 101.11C105.804 100.968 105.365 100.817 104.759 100.655C104.133 100.504 103.618 100.347 103.214 100.186C102.82 100.024 102.476 99.7765 102.183 99.4432C101.901 99.1099 101.759 98.6605 101.759 98.0949C101.759 97.6303 101.891 97.2062 102.153 96.8224C102.426 96.4386 102.81 96.1356 103.304 95.9134C103.809 95.6912 104.4 95.5801 105.077 95.5801C106.077 95.5801 106.875 95.8326 107.471 96.3376C108.066 96.8325 108.395 97.5041 108.455 98.3525H106.425C106.395 98.0192 106.254 97.7566 106.001 97.5647C105.759 97.3627 105.43 97.2617 105.016 97.2617C104.633 97.2617 104.335 97.3324 104.123 97.4738C103.921 97.6152 103.82 97.8121 103.82 98.0646C103.82 98.3474 103.961 98.5646 104.244 98.7161C104.527 98.8575 104.966 99.0039 105.562 99.1554C106.168 99.3069 106.668 99.4634 107.062 99.625C107.455 99.7866 107.794 100.039 108.077 100.382C108.369 100.716 108.521 101.16 108.531 101.716C108.531 102.2 108.395 102.635 108.122 103.018C107.859 103.402 107.476 103.705 106.971 103.927C106.476 104.14 105.895 104.246 105.228 104.246ZM112.741 97.4587V101.519C112.741 101.801 112.807 102.009 112.938 102.14C113.08 102.261 113.312 102.322 113.635 102.322H114.62V104.109H113.287C111.499 104.109 110.605 103.241 110.605 101.504V97.4587H109.605V95.7165H110.605V93.641H112.741V95.7165H114.62V97.4587H112.741ZM119.872 104.246C119.064 104.246 118.337 104.069 117.691 103.715C117.044 103.352 116.534 102.842 116.161 102.185C115.797 101.529 115.615 100.771 115.615 99.9129C115.615 99.0544 115.802 98.2969 116.176 97.6404C116.559 96.984 117.08 96.479 117.736 96.1255C118.393 95.7619 119.125 95.5801 119.933 95.5801C120.741 95.5801 121.473 95.7619 122.129 96.1255C122.786 96.479 123.301 96.984 123.675 97.6404C124.058 98.2969 124.25 99.0544 124.25 99.9129C124.25 100.771 124.053 101.529 123.659 102.185C123.276 102.842 122.751 103.352 122.084 103.715C121.427 104.069 120.69 104.246 119.872 104.246ZM119.872 102.397C120.256 102.397 120.614 102.306 120.948 102.125C121.291 101.933 121.564 101.65 121.766 101.276C121.968 100.903 122.069 100.448 122.069 99.9129C122.069 99.115 121.857 98.504 121.433 98.0798C121.018 97.6455 120.508 97.4284 119.902 97.4284C119.296 97.4284 118.786 97.6455 118.372 98.0798C117.968 98.504 117.766 99.115 117.766 99.9129C117.766 100.711 117.963 101.327 118.357 101.761C118.761 102.185 119.266 102.397 119.872 102.397ZM129.018 104.246C128.331 104.246 127.715 104.124 127.17 103.882C126.624 103.63 126.19 103.291 125.867 102.867C125.554 102.443 125.382 101.973 125.352 101.458H127.488C127.528 101.781 127.685 102.049 127.957 102.261C128.24 102.473 128.589 102.579 129.003 102.579C129.407 102.579 129.72 102.498 129.942 102.337C130.174 102.175 130.29 101.968 130.29 101.716C130.29 101.443 130.149 101.241 129.866 101.11C129.593 100.968 129.154 100.817 128.548 100.655C127.922 100.504 127.407 100.347 127.003 100.186C126.609 100.024 126.266 99.7765 125.973 99.4432C125.69 99.1099 125.549 98.6605 125.549 98.0949C125.549 97.6303 125.68 97.2062 125.942 96.8224C126.215 96.4386 126.599 96.1356 127.094 95.9134C127.599 95.6912 128.19 95.5801 128.866 95.5801C129.866 95.5801 130.664 95.8326 131.26 96.3376C131.856 96.8325 132.184 97.5041 132.245 98.3525H130.215C130.184 98.0192 130.043 97.7566 129.79 97.5647C129.548 97.3627 129.22 97.2617 128.806 97.2617C128.422 97.2617 128.124 97.3324 127.912 97.4738C127.71 97.6152 127.609 97.8121 127.609 98.0646C127.609 98.3474 127.75 98.5646 128.033 98.7161C128.316 98.8575 128.755 99.0039 129.351 99.1554C129.957 99.3069 130.457 99.4634 130.851 99.625C131.245 99.7866 131.583 100.039 131.866 100.382C132.159 100.716 132.31 101.16 132.32 101.716C132.32 102.2 132.184 102.635 131.911 103.018C131.649 103.402 131.265 103.705 130.76 103.927C130.265 104.14 129.684 104.246 129.018 104.246Z" fill="white"/>
</svg>
